<svg xmlns="http://www.w3.org/2000/svg" viewBox="0 0 270.74 94.64"><defs><style>.fcfe535d-d40e-48a5-b3f4-ae796f66a2e9{fill:#fff;}</style></defs><title>Recurso 4</title><g id="a3b2e582-5ec1-4142-b669-bab032104bc3" data-name="Capa 2"><g id="b22ee316-80d0-4414-bf20-fc512842e2f0" data-name="Capa 1"><path d="M205.55,68.57a2.64,2.64,0,1,1,2.63,2.76A2.66,2.66,0,0,1,205.55,68.57Z"/><path d="M216.65,42.52a2.52,2.52,0,0,1,5,0,2.52,2.52,0,0,1-5,0Zm.67,6.77H221V70.8h-3.64Z"/><path d="M228.2,49.29h3l.3,3.1h.13c2.05-2,4.26-3.63,7.21-3.63,4.53,0,6.57,2.92,6.57,8.41V70.8h-3.64V57.64c0-4-1.21-5.72-4.06-5.72-2.2,0-3.72,1.12-5.88,3.3V70.8H228.2Z"/><path d="M250.81,60.07c0-7.18,4.69-11.31,10-11.31s10,4.13,10,11.31-4.69,11.26-10,11.26S250.81,67.19,250.81,60.07Zm16.17,0c0-4.93-2.51-8.28-6.21-8.28s-6.2,3.35-6.2,8.28,2.5,8.23,6.2,8.23S267,65,267,60.07Z"/><path d="M.07,44.64Q.85,37,10.66,33.52a47.23,47.23,0,0,1,11.4-2.38q6.23-.55,15-.78-.12,1.59-.17,7.82a46.33,46.33,0,0,1-.21,6.29,22.72,22.72,0,0,0-3-.56q-2.73-.42-5.87-.62a17.82,17.82,0,0,0-4.91.2,32.63,32.63,0,0,1-3.91.42,18.71,18.71,0,0,0-4.48.7,3.4,3.4,0,0,0-1.76,1.18,2.4,2.4,0,0,0-.47,2.28,3.79,3.79,0,0,0,1.7,1.84,15,15,0,0,0,3.28,1.47,37.19,37.19,0,0,0,4.17,1.08c1.49.3,2.94.54,4.35.71a32.57,32.57,0,0,1,7.89,1.89,24.11,24.11,0,0,1,5.88,3.17,19,19,0,0,1,3.88,3.93,16.51,16.51,0,0,1,2.29,4.27,11.94,11.94,0,0,1,.71,4.9,11.28,11.28,0,0,1-3.13,6.93A18.49,18.49,0,0,1,36,82.62a37.71,37.71,0,0,1-6,1.51,67.74,67.74,0,0,1-6.75.86c-2.2.16-4.55.29-7,.36l-6.57.19c.08-.67.13-2,.15-3.86s0-3.55,0-4.93,0-2.62,0-3.68A5.27,5.27,0,0,1,10,71.43a42.1,42.1,0,0,0,6.17.95,25,25,0,0,0,7.68,0A22.31,22.31,0,0,1,27.09,72c1.55-.11,2.61-.2,3.18-.25a8.34,8.34,0,0,0,1.94-.47A3.43,3.43,0,0,0,34,70.1a2.65,2.65,0,0,0,.56-2.37q-.8-2.27-7.64-3.27A58.56,58.56,0,0,1,17.2,62,41.31,41.31,0,0,1,6.91,57,15.49,15.49,0,0,1,.59,49.39,10.61,10.61,0,0,1,.07,44.64Zm2.12-.5a10.36,10.36,0,0,0,.55,4.31A13.81,13.81,0,0,0,6.3,53.78a27.43,27.43,0,0,0,6.15,4.44,41.56,41.56,0,0,0,7.47,3.12,50.73,50.73,0,0,0,8,1.73,15.48,15.48,0,0,1,3.66.95,14.93,14.93,0,0,1,3.47,1.87,5.27,5.27,0,0,1,2,2.37q.66,1.88-1.75,3.41a5.78,5.78,0,0,1-1.47.67,26.63,26.63,0,0,1-3.75,1c-1.46.28-3.13.52-5,.72s-3.57.31-5.12.34a36.14,36.14,0,0,1-4.64-.23,5.5,5.5,0,0,0-1.11,0,5.79,5.79,0,0,1-1.45,0,3.83,3.83,0,0,1-1.48-.63L11,83.76q3.11-.17,7.41-.46t7.27-.63q3-.33,5.73-.87a34.6,34.6,0,0,0,4.79-1.25,15.11,15.11,0,0,0,5.88-3.47,8.25,8.25,0,0,0,2.33-5.32,10.35,10.35,0,0,0-.66-4.62,13.68,13.68,0,0,0-1.92-3.57,16,16,0,0,0-3.39-3.32,23.08,23.08,0,0,0-5.37-2.81,35.86,35.86,0,0,0-7.6-1.91A49.26,49.26,0,0,1,16.33,53c-3.33-1.24-5.34-2.81-6-4.73a4.07,4.07,0,0,1,1-4.07,5.23,5.23,0,0,1,2.17-1.26,22.54,22.54,0,0,1,3.78-.89c1.51-.24,3.12-.42,4.84-.52s3.36-.14,4.95-.09a41.16,41.16,0,0,1,4.25.33,7,7,0,0,0,1.13,0,5.81,5.81,0,0,1,1.45,0,3.91,3.91,0,0,1,1.45.63l.22-10.24q-4.43.23-9.11.69T18,34A46.6,46.6,0,0,0,11,35.81Q2.6,38.78,2.19,44.14Z"/><path d="M61.52,58.21l14.4-3.75L79.1,66.8l-34,9.42L43.48,65l7.8-2.44L45.62,37.72,34,43.2l-3-13.6L63.73,15l4.11,12.08L56.68,32.67ZM60.26,60.8,55,31.9l10.93-5.53L62.8,17,32.86,30.31l1.89,10.42,12.06-5.08,6.4,27.59-8.13,3,1.25,8.11,31.16-8.89a7,7,0,0,0-.43-2c-.51-1.84-1-3.55-1.54-5.13a9.85,9.85,0,0,0-.89-2.31c-.36.1-1.28.4-2.76.89l-5.15,1.71-4.23,1.41C61.59,60.35,60.85,60.6,60.26,60.8Z"/><path d="M73.57,23.76l14-3.62,4.93,5.42,1.71-9.11,9.14-2L123.7,62.91l-17.06,1.52-6.3-16.64-2.11,7-6-7.16,1.31,14.87-16,4.24ZM88,22.27,74.88,25.48l4.23,39.24,13-3.43L90.5,43.53l2.13,2.73c.92,1.18,1.94,2.47,3.08,3.87a18.81,18.81,0,0,0,1.8,2.1,40.24,40.24,0,0,0,1.4-4.38c.85-2.91,1.3-4.39,1.35-4.46L107.59,63l14-.94L117.23,51.7,110.66,36q-3.39-8.09-5.8-13.93c-1.61-3.89-2.43-6-2.48-6.21L95.11,17.5l-2,11.61Z"/><path d="M154.72,12.74a16.92,16.92,0,0,1,8,13.55,24.55,24.55,0,0,1-.36,6.34A30.5,30.5,0,0,1,160.48,39a32.13,32.13,0,0,1-3,5.53,49.65,49.65,0,0,1-5.55,6.88,33,33,0,0,1-5.7,4.7,26.76,26.76,0,0,1-5.68,2.82,21.93,21.93,0,0,1-5.49,1.17,20.24,20.24,0,0,1-11.69-2.48,17.06,17.06,0,0,1-6.29-6.84A25.51,25.51,0,0,1,114,40.29a23.16,23.16,0,0,1,4.56-16.24,57.82,57.82,0,0,1,6.63-7.52,33.91,33.91,0,0,1,7.41-5.39,20.73,20.73,0,0,1,8.1-2.4Q147.6,8.2,154.72,12.74ZM153.43,15a23.9,23.9,0,0,0-3.83-2.11,16.84,16.84,0,0,0-4-1.2,16.14,16.14,0,0,0-3.91-.17,17.27,17.27,0,0,0-4.95,1.14,24.08,24.08,0,0,0-5,2.67,38.85,38.85,0,0,0-5,4.21,67,67,0,0,0-5.27,5.93,20.83,20.83,0,0,0-3.69,7.38,23.92,23.92,0,0,0-.77,8.2,21.6,21.6,0,0,0,2.45,8.59,14.74,14.74,0,0,0,5.37,5.89,13.45,13.45,0,0,0,8.41,1.86,22.25,22.25,0,0,0,8.41-2.52,36.16,36.16,0,0,0,7.79-5.38A32.43,32.43,0,0,0,155,43.28,29.1,29.1,0,0,0,157,39.45a34.51,34.51,0,0,0,1.59-4.25,26.79,26.79,0,0,0,.91-4.4,22.41,22.41,0,0,0,.11-4.55Q159,18.74,153.43,15Zm-11.56-1.33c2.65,1.61,2,13.56-5.6,16.8-3.6,1.54-8.94,1.2-10-1.2C124.2,24.6,138.36,11.57,141.87,13.69ZM155,20C152,18.44,140,26.05,142,33.18c.81,2.85,4,6,6.75,5.6C154.56,38,158.56,21.75,155,20ZM121.58,33.1c-5.31,2.82-3.65,13.46.89,15.29,4.26,1.71,9.44-2.77,12-9.28C136.29,34.47,125.61,31,121.58,33.1Zm18.16,4.6c-4.8,1.24-10.32,11.36-9,14.53.9,2.11,3,2.53,7.41,1.4s9.81-4.5,9.2-8C147,43.24,142.24,37.05,139.74,37.7Z"/><path d="M175,1.62l7.22,19.59L181,3.42l18.2,1.16-1,65.74-10.82.48L177,39.35,176.63,65,162.71,65l-.36-56.19-5-1.32L157.28,0Zm22.45,4.83L183.1,5.17l1.31,25.47L173.52,3.75l-14.61-2,.14,4.08,5.28.85-.15,56.91,10.34,0,1.72-31.88,11.62,37,8.62-.26Z"/><path class="fcfe535d-d40e-48a5-b3f4-ae796f66a2e9" d="M2.06,43.66A10.2,10.2,0,0,0,2.61,48,14,14,0,0,0,6.16,53.3a27.5,27.5,0,0,0,6.16,4.44,40.71,40.71,0,0,0,7.46,3.11,50.86,50.86,0,0,0,8,1.74,14.83,14.83,0,0,1,3.65.95,14.73,14.73,0,0,1,3.47,1.87,5.27,5.27,0,0,1,2,2.36c.44,1.26-.14,2.39-1.75,3.42a6.17,6.17,0,0,1-1.47.67,27,27,0,0,1-3.75,1c-1.46.28-3.13.52-5,.72s-3.57.31-5.11.34a36.39,36.39,0,0,1-4.65-.23,5.4,5.4,0,0,0-1.1,0,5.87,5.87,0,0,1-1.46,0A3.89,3.89,0,0,1,11.11,73L10.9,83.28q3.12-.16,7.42-.46t7.26-.63q3-.33,5.74-.87a34.89,34.89,0,0,0,4.79-1.26A15.12,15.12,0,0,0,42,76.6a8.25,8.25,0,0,0,2.33-5.33,10.31,10.31,0,0,0-.66-4.61,13.93,13.93,0,0,0-1.93-3.58,15.9,15.9,0,0,0-3.38-3.31A22.34,22.34,0,0,0,33,57a35.86,35.86,0,0,0-7.6-1.91,48.85,48.85,0,0,1-9.18-2.53c-3.34-1.24-5.34-2.82-6-4.73a4.1,4.1,0,0,1,1.06-4.07,5.25,5.25,0,0,1,2.16-1.26,22.84,22.84,0,0,1,3.79-.9c1.51-.24,3.12-.41,4.83-.52s3.37-.13,5-.08a41,41,0,0,1,4.24.33,6.3,6.3,0,0,0,1.14,0,5.77,5.77,0,0,1,1.45,0,3.88,3.88,0,0,1,1.44.63l.22-10.24q-4.42.23-9.1.69c-3.12.31-6,.71-8.53,1.18a46.24,46.24,0,0,0-6.94,1.81Q2.47,38.3,2.06,43.66Z"/><path d="M74.88,76.48H93v3.63H78.51v3.63H93v10.9H74.88V91H89.4V87.38H74.88Z"/><path d="M111.18,87.38H100.29v7.26H96.66V76.48h3.63v7.26h10.89V76.48h3.63V94.64h-3.63Z"/><path d="M118.44,76.48h18.15v3.63h-7.26V91h7.26v3.63H118.44V91h7.26V80.11h-7.26Z"/><path d="M140.22,76.48h18.15v3.63H143.85v3.63h7.26v3.64h-7.26V91h14.52v3.63H140.22Z"/><path d="M162,76.48h3.63V91h14.52v3.63H162Z"/><path d="M183.78,76.48H198.3v3.63h3.63V91H198.3V80.11H187.41V91H198.3v3.63H183.78Z"/><path d="M212.52,90.94h-1.8V85.53h1.8v5.41h1.8v1.79h1.8v1.8h-1.8v-1.8h-1.8Zm3.6,0h1.8v1.79h-1.8Zm1.8-5.41h1.8v5.41h-1.8Z"/><path d="M221.52,85.53h3.6v9h-1.8v-7.2h-1.8Z"/><path d="M226.92,92.73h1.8v1.8h-1.8Z"/><path d="M230.52,85.53h9v9h-9Zm1.8,7.2h5.4v-5.4h-5.4Z"/><path d="M241.32,92.73h1.8v1.8h-1.8Z"/><path d="M244.92,85.53h9v5.41h-7.2v1.79h7.2v1.8h-9V89.14h7.2V87.33h-7.2Z"/></g></g></svg>