<svg xmlns="http://www.w3.org/2000/svg" viewBox="0 0 291.73 118.4"><defs><style>.ae6995e1-04f2-4501-b94b-ed7a4bf21ee8{fill:none;}.a263baa4-106f-42fb-a776-bb4261880bab{fill:red;}.aa9b7dfb-0de7-4c20-acbe-7e6413e898ac{fill:#01a0c6;}.f991630e-854c-4e6e-9722-b3670ca6e0ab{fill:#b3b3b3;}.e5d11b6c-192c-4276-a944-6a9cdb26a271{fill:#40a629;}.b024e3ab-0e1b-43bd-9faf-22f60ed6fe19{fill:#ffe610;}</style></defs><title>Recurso 6</title><g id="f394f6f3-f905-49d4-9fcf-5ae37a871bec" data-name="Capa 2"><g id="b6af56c8-c6b0-4744-a1e1-81c9fdb89b81" data-name="Capa 1"><rect class="ae6995e1-04f2-4501-b94b-ed7a4bf21ee8" width="291.73" height="118.4"/><path d="M215.12,80.46a2.64,2.64,0,1,1,5.27,0,2.64,2.64,0,1,1-5.27,0Z"/><path d="M226.23,54.4a2.52,2.52,0,0,1,5,0,2.52,2.52,0,0,1-5,0Zm.66,6.77h3.64V82.68h-3.64Z"/><path d="M237.78,61.17h3l.31,3.1h.12c2-2,4.26-3.63,7.22-3.63,4.53,0,6.57,2.92,6.57,8.41V82.68h-3.65V69.52c0-4-1.21-5.72-4-5.72-2.2,0-3.73,1.12-5.88,3.3V82.68h-3.64Z"/><path d="M260.38,72c0-7.17,4.7-11.31,10-11.31s10,4.14,10,11.31-4.7,11.26-10,11.26S260.38,79.08,260.38,72Zm16.18,0c0-4.93-2.51-8.28-6.21-8.28S264.14,67,264.14,72s2.51,8.23,6.21,8.23S276.56,76.88,276.56,72Z"/><path d="M71.09,70.09,85.5,66.34l3.18,12.34-34,9.43L53.05,76.85l7.81-2.43L55.2,49.6,43.52,55.08l-3-13.6,32.8-14.6L77.42,39,66.26,44.55Zm-1.25,2.6L64.56,43.78l10.93-5.53L72.38,28.9,42.44,42.19l1.89,10.42,12.06-5.08,6.4,27.6-8.13,3,1.24,8.11,31.16-8.88a6.19,6.19,0,0,0-.42-2q-.77-2.77-1.55-5.14a10.2,10.2,0,0,0-.88-2.31c-.36.1-1.28.4-2.77.89L76.3,70.55c-2,.65-3.36,1.12-4.24,1.4S70.43,72.48,69.84,72.69Z"/><path class="a263baa4-106f-42fb-a776-bb4261880bab" d="M69.84,72.69,64.56,43.78l10.93-5.53L72.38,28.9,42.44,42.19l1.89,10.42,12.06-5.08,6.4,27.6-8.13,3,1.24,8.11,31.16-8.88a6.19,6.19,0,0,0-.42-2q-.77-2.77-1.55-5.14a10.2,10.2,0,0,0-.88-2.31c-.36.1-1.28.4-2.77.89L76.3,70.55c-2,.65-3.36,1.12-4.24,1.4S70.43,72.48,69.84,72.69Z"/><path d="M83.15,35.64l14-3.61,4.93,5.42,1.71-9.12,9.14-2,20.37,48.42-17.07,1.52-6.29-16.64-2.12,7-6-7.16,1.31,14.87-16,4.25Zm14.39-1.48L84.46,37.37l4.23,39.24,13-3.44-1.62-17.76,2.12,2.73q1.38,1.77,3.09,3.88a21.63,21.63,0,0,0,1.79,2.09,37.6,37.6,0,0,0,1.4-4.38c.86-2.9,1.31-4.39,1.35-4.46l7.34,19.64,14-.94-4.37-10.39q-3.18-7.56-6.57-15.66T114.44,34Q112,28.15,112,27.77l-7.27,1.61-2,11.61Z"/><path class="aa9b7dfb-0de7-4c20-acbe-7e6413e898ac" d="M97.54,34.16,84.46,37.37l4.23,39.24,13-3.44-1.62-17.76,2.12,2.73q1.38,1.77,3.09,3.88a21.63,21.63,0,0,0,1.79,2.09,37.6,37.6,0,0,0,1.4-4.38c.86-2.9,1.31-4.39,1.35-4.46l7.34,19.64,14-.94-4.37-10.39q-3.18-7.56-6.57-15.66T114.44,34Q112,28.15,112,27.77l-7.27,1.61-2,11.61Z"/><path d="M164.29,24.62a16.89,16.89,0,0,1,8,13.56,24.07,24.07,0,0,1-.36,6.33,29.43,29.43,0,0,1-1.92,6.37,31.8,31.8,0,0,1-3,5.53,51.67,51.67,0,0,1-5.55,6.87,32.54,32.54,0,0,1-5.7,4.7,26.06,26.06,0,0,1-5.68,2.82A21.93,21.93,0,0,1,144.64,72,20.27,20.27,0,0,1,133,69.5a17.16,17.16,0,0,1-6.29-6.85,25.46,25.46,0,0,1-3.11-10.48,23.17,23.17,0,0,1,4.55-16.23,57.92,57.92,0,0,1,6.63-7.53A34,34,0,0,1,142.15,23a20.85,20.85,0,0,1,8.1-2.4Q157.17,20.08,164.29,24.62Z"/><path class="f991630e-854c-4e6e-9722-b3670ca6e0ab" d="M163,26.9a23.39,23.39,0,0,0-3.82-2.11,16.42,16.42,0,0,0-4-1.19,16.1,16.1,0,0,0-3.91-.18,17.77,17.77,0,0,0-4.95,1.14,23.87,23.87,0,0,0-4.94,2.68,38,38,0,0,0-5,4.2,65.49,65.49,0,0,0-5.27,5.93,20.67,20.67,0,0,0-3.69,7.38,23.7,23.7,0,0,0-.77,8.2,21.54,21.54,0,0,0,2.44,8.59,14.86,14.86,0,0,0,5.38,5.9,13.49,13.49,0,0,0,8.41,1.85,22.3,22.3,0,0,0,8.41-2.52,36.1,36.1,0,0,0,7.78-5.38,32.14,32.14,0,0,0,5.49-6.22,29.91,29.91,0,0,0,2.06-3.84,34.38,34.38,0,0,0,1.59-4.24,28.24,28.24,0,0,0,.91-4.41,22.39,22.39,0,0,0,.11-4.55Q168.62,30.63,163,26.9Z"/><path class="e5d11b6c-192c-4276-a944-6a9cdb26a271" d="M151.45,25.58c2.65,1.6,2,13.56-5.6,16.8-3.6,1.53-8.95,1.19-10-1.2C133.77,36.48,147.94,23.46,151.45,25.58Z"/><path class="a263baa4-106f-42fb-a776-bb4261880bab" d="M164.6,31.86c-3.06-1.54-15.07,6.07-13,13.2.81,2.85,4,6,6.75,5.6C164.13,49.86,168.13,33.63,164.6,31.86Z"/><path class="b024e3ab-0e1b-43bd-9faf-22f60ed6fe19" d="M131.16,45c-5.31,2.82-3.65,13.46.89,15.29,4.26,1.72,9.43-2.76,12-9.28C145.86,46.36,135.19,42.84,131.16,45Z"/><path class="aa9b7dfb-0de7-4c20-acbe-7e6413e898ac" d="M149.31,49.58c-4.8,1.25-10.31,11.36-8.95,14.53.91,2.11,2.95,2.53,7.42,1.4s9.8-4.5,9.2-8C156.56,55.12,151.81,48.93,149.31,49.58Z"/><path d="M184.58,13.5l7.22,19.6-1.26-17.79,18.2,1.15-1,65.74-10.83.48L186.57,51.23l-.37,25.69-13.91-.09-.36-56.18-5-1.32-.06-7.45ZM207,18.33l-14.36-1.27L194,42.52,183.09,15.63l-14.6-2,.14,4.08,5.28.85-.15,56.91,10.34,0,1.71-31.88,11.62,37,8.62-.26Z"/><polygon class="b024e3ab-0e1b-43bd-9faf-22f60ed6fe19" points="207.03 18.33 192.67 17.06 193.98 42.52 183.09 15.63 168.49 13.59 168.63 17.67 173.91 18.52 173.76 75.43 184.1 75.41 185.81 43.53 197.43 80.53 206.05 80.26 207.03 18.33"/><path class="e5d11b6c-192c-4276-a944-6a9cdb26a271" d="M9.78,56.52q.78-7.67,10.59-11.12A47.23,47.23,0,0,1,31.77,43q6.23-.56,15-.78c-.08,1.07-.14,3.67-.17,7.82a46.19,46.19,0,0,1-.21,6.29,22.72,22.72,0,0,0-3-.56q-2.73-.42-5.87-.62a17.37,17.37,0,0,0-4.91.21,36.05,36.05,0,0,1-3.91.41,18.6,18.6,0,0,0-4.48.71,3.34,3.34,0,0,0-1.76,1.17A2.41,2.41,0,0,0,21.92,60a3.75,3.75,0,0,0,1.7,1.84,15,15,0,0,0,3.28,1.47,37.19,37.19,0,0,0,4.17,1.08c1.49.3,2.94.54,4.35.71A32.11,32.11,0,0,1,43.31,67a23.77,23.77,0,0,1,5.88,3.16A19,19,0,0,1,53.07,74a17,17,0,0,1,2.29,4.27,12,12,0,0,1,.71,4.91,11.26,11.26,0,0,1-3.13,6.92,18.38,18.38,0,0,1-7.22,4.36,38.74,38.74,0,0,1-6,1.52q-3.43.6-6.75.85t-7,.37q-3.74.12-6.57.18c.08-.67.13-2,.15-3.86s0-3.54,0-4.93,0-2.61,0-3.68a4.92,4.92,0,0,1,.15-1.64,41.83,41.83,0,0,0,6.17,1,25.06,25.06,0,0,0,7.68,0,20.61,20.61,0,0,1,3.25-.4c1.55-.11,2.61-.2,3.18-.25a8.8,8.8,0,0,0,1.94-.46A3.49,3.49,0,0,0,43.68,82a2.67,2.67,0,0,0,.56-2.38q-.8-2.27-7.64-3.27a58.19,58.19,0,0,1-9.69-2.41,41.69,41.69,0,0,1-10.29-5.05,15.51,15.51,0,0,1-6.32-7.6A10.67,10.67,0,0,1,9.78,56.52Z"/><path d="M9.64,56.52q.78-7.67,10.59-11.12A47.44,47.44,0,0,1,31.63,43q6.24-.56,15-.78c-.08,1.07-.14,3.67-.17,7.82a46.19,46.19,0,0,1-.21,6.29,22.72,22.72,0,0,0-3-.56c-1.83-.28-3.78-.49-5.87-.62a17.35,17.35,0,0,0-4.91.21,36.38,36.38,0,0,1-3.91.41A18.7,18.7,0,0,0,24,56.5a3.42,3.42,0,0,0-1.76,1.17A2.46,2.46,0,0,0,21.78,60a3.78,3.78,0,0,0,1.71,1.84,15,15,0,0,0,3.28,1.47,36.1,36.1,0,0,0,4.17,1.08c1.49.3,2.94.54,4.34.71A31.89,31.89,0,0,1,43.17,67a23.77,23.77,0,0,1,5.88,3.16A19,19,0,0,1,52.94,74a17,17,0,0,1,2.29,4.27,12,12,0,0,1,.7,4.91,11.25,11.25,0,0,1-3.12,6.92,18.42,18.42,0,0,1-7.23,4.36,38.89,38.89,0,0,1-6,1.52q-3.44.6-6.75.85t-7,.37q-3.74.12-6.57.18c.07-.67.12-2,.15-3.86s0-3.54,0-4.93,0-2.61,0-3.68a4.73,4.73,0,0,1,.16-1.64,41.83,41.83,0,0,0,6.17,1,25.06,25.06,0,0,0,7.68,0,20.44,20.44,0,0,1,3.24-.4c1.56-.11,2.62-.2,3.19-.25a8.73,8.73,0,0,0,1.93-.46A3.4,3.4,0,0,0,43.54,82a2.65,2.65,0,0,0,.57-2.38C43.57,78.1,41,77,36.46,76.34a58.34,58.34,0,0,1-9.68-2.41,41.35,41.35,0,0,1-10.29-5.05,15.51,15.51,0,0,1-6.32-7.6A10.82,10.82,0,0,1,9.64,56.52Zm2.13-.5a10.18,10.18,0,0,0,.55,4.31,14,14,0,0,0,3.55,5.34A27.79,27.79,0,0,0,22,70.1a40.07,40.07,0,0,0,7.46,3.12,50.85,50.85,0,0,0,8,1.73,15.29,15.29,0,0,1,3.65,1,14.73,14.73,0,0,1,3.47,1.87,5.24,5.24,0,0,1,2,2.37q.66,1.88-1.75,3.41a5.78,5.78,0,0,1-1.47.67,24.44,24.44,0,0,1-3.75,1c-1.47.28-3.13.52-5,.72s-3.57.32-5.11.34A34.65,34.65,0,0,1,24.86,86a7.49,7.49,0,0,0-1.1,0,5.87,5.87,0,0,1-1.46,0,3.89,3.89,0,0,1-1.48-.63l-.21,10.27q3.12-.16,7.42-.47t7.26-.63c2-.22,3.89-.51,5.74-.87a35,35,0,0,0,4.79-1.25A15.13,15.13,0,0,0,51.7,89,8.23,8.23,0,0,0,54,83.64,10.29,10.29,0,0,0,53.37,79a13.77,13.77,0,0,0-1.93-3.58,15.67,15.67,0,0,0-3.38-3.31,22.7,22.7,0,0,0-5.37-2.82,36.48,36.48,0,0,0-7.6-1.91,48.1,48.1,0,0,1-9.18-2.53c-3.34-1.23-5.34-2.81-6-4.73A4.09,4.09,0,0,1,21,56.08a5.14,5.14,0,0,1,2.16-1.25,21.87,21.87,0,0,1,3.79-.9c1.51-.24,3.12-.42,4.83-.52s3.37-.13,5-.08a41.16,41.16,0,0,1,4.24.32,6,6,0,0,0,1.14,0,5.34,5.34,0,0,1,1.45,0,3.68,3.68,0,0,1,1.44.62L45.18,44q-4.43.21-9.1.69c-3.12.31-6,.7-8.53,1.18a46.24,46.24,0,0,0-6.94,1.81Q12.18,50.66,11.77,56Z"/><path d="M84.46,88.37h18.15V92H88.09v3.63h14.52v10.89H84.46v-3.63H99V99.26H84.46Z"/><path d="M120.76,99.26H109.87v7.26h-3.63V88.37h3.63v7.26h10.89V88.37h3.63v18.15h-3.63Z"/><path d="M128,88.37h18.15V92h-7.26v10.89h7.26v3.63H128v-3.63h7.26V92H128Z"/><path d="M149.8,88.37H168V92H153.43v3.63h7.26v3.63h-7.26v3.63H168v3.63H149.8Z"/><path d="M171.58,88.37h3.63v14.52h14.52v3.63H171.58Z"/><path d="M193.36,88.37h14.52V92h3.63v10.89h-3.63V92H197v10.89h10.89v3.63H193.36Z"/></g></g></svg>